<svg xmlns="http://www.w3.org/2000/svg" xmlns:xlink="http://www.w3.org/1999/xlink" xmlns:svgjs="http://svgjs.dev/svgjs" width="2000" height="287"><svg viewBox="0 0 396 57" data-background-color="#c9efc7" height="287" width="2000" xmlns="http://www.w3.org/2000/svg" xmlns:xlink="http://www.w3.org/1999/xlink" transform="translate(-1.212 -.207)"><svg viewBox="0 0 395.52 56.918" height="56.918" width="395.52" transform="translate(.24 .041)"><svg viewBox="0 0 395.52 56.918" height="56.918" width="395.52"><svg viewBox="0 0 395.52 56.918" height="56.918" width="395.52"><svg viewBox="0 0 395.52 56.918" height="56.918" width="395.52"><svg viewBox="0 0 395.52 56.918" height="56.918" width="395.52"><svg width="395.52" viewBox="1.8 -36.15 258.84 37.25" height="56.918" data-palette-color="#454545"><path d="M37.8-1.15Q32.85 1 26.88 1 20.9 1 16-.58 11.1-2.15 8.05-4.8 5-7.45 3.4-10.73 1.8-14 1.8-17.55q0-3.55 1.63-6.83 1.62-3.27 4.65-5.92 3.02-2.65 7.92-4.25t10.75-1.6q5.85 0 10.35 1.45t7.25 3.95q5.6 5.1 5.6 12.1 0 5.85-3.8 10.95l4.75.45q1.15.15 1.15 1.5t-.57 3.2Q50.9-.7 50.38.2q-.53.9-1.93.9-1.7 0-10.65-2.25zm-.95-17.28q0-2.37-1.7-4.15-1.7-1.77-5.17-1.77-3.48 0-5.53 1.85-2.05 1.85-2.05 4.5t2.15 4.25q2.15 1.6 5.18 1.6 3.02 0 5.07-1.95 2.05-1.95 2.05-4.33zM76.3-29.75l-.1 4.55v9.65q0 2.1 1.3 3.25t3.05 1.15q1.75 0 3.02-1.15 1.28-1.15 1.28-3.25v-14.9q0-2.35.62-3.45.63-1.1 2.73-1.1h4.6q1.6 0 2.2.95 1.15 1.7 1.15 13.15 0 3.75-.1 5.75-.15 4.05-1.88 7.22-1.72 3.18-4.42 5.08Q84.3 1 77.4 1q-9.1 0-15.05-4.25-3-2.15-4.73-5.72-1.72-3.58-1.77-8.33-.05-2.35-.05-6.93 0-4.57.12-6.6.13-2.02.8-3.1Q57.4-35 59.45-35H72.8q2 0 2.65 1.05.85 1.35.85 4.2zM105.05-35h13.4q2.1 0 2.77 1.05.68 1.05.9 4.32.23 3.28.23 12.7 0 9.43-.4 13.83-.15 1.15-1.03 2.05-.87.9-2.32 1-2.85.2-6.6.2-3.75 0-7.1-.2-1.45-.1-2.33-1-.87-.9-1.02-2.05-.4-4.4-.4-13.83 0-9.42.22-12.7.23-3.27.9-4.32.68-1.05 2.78-1.05zm24.04 6.15v-3.7q0-1.3.63-1.83.62-.52 3.35-.6 2.72-.07 8.22-.12 5.5-.05 12.15-.05h9q1.2 0 2.23.65 1.02.65 1.02 1.65v4.1q0 .8-.25 1.25l-.3.6q-.05.15-.35.6l-.4.6q-4.65 7.35-10.75 15.85-.6.85-.42 1.42.17.58.92.58h9.55q1.05 0 1.63.72.57.73.57 1.58v2.9q0 2.6-2.2 2.7-6.55.15-16.2.15-9.65 0-15.4-.2-2.55-.1-3.72-.68-1.18-.57-1.18-2.22v-3.85q0-1.65 1-3.3 5.2-8.25 10.85-15.75.45-.65.15-1.1-.3-.45-1.15-.45h-6.6q-1 0-1.67-.43-.68-.42-.68-1.07zm76.3-6.15h6.5q1 0 1 1 0 .65-.55 1.4l-11.2 17.75q0 4.05-.25 11.8-.05 1.1-.95 2.02-.9.93-2.4 1.03-2.85.2-6.85.2-4 0-7.35-.2-1.5-.1-2.4-1.03-.9-.92-.95-2.02-.1-5.05-.1-10.5l-10.1-16.95q-.75-1.15-.75-1.9 0-2.5 2.45-2.5l17.1-.1q1.45 0 2.18.45.72.45 1.72 1.85l3.05 6.55q.8 1.1 1.33 1.1.52 0 1.27-.9l5.1-8q.85-1.05 2.15-1.05zm47.75 0h6.5q1 0 1 1 0 .65-.55 1.4l-11.2 17.75q0 4.05-.25 11.8-.05 1.1-.95 2.02-.9.93-2.4 1.03-2.85.2-6.85.2-4 0-7.35-.2-1.5-.1-2.4-1.03-.9-.92-.95-2.02-.1-5.05-.1-10.5l-10.1-16.95q-.75-1.15-.75-1.9 0-2.5 2.45-2.5l17.1-.1q1.45 0 2.17.45.73.45 1.73 1.85l3.05 6.55q.8 1.1 1.32 1.1.53 0 1.28-.9l5.1-8q.85-1.05 2.15-1.05z" fill="#454545" data-fill-palette-color="primary" class="wordmark-text-0"/></svg></svg></svg></svg></svg></svg></svg></svg>