<svg xmlns="http://www.w3.org/2000/svg" version="1.1" xmlns:xlink="http://www.w3.org/1999/xlink" xmlns:svgjs="http://svgjs.dev/svgjs" width="2000" height="287" viewBox="0 0 2000 287"><g transform="matrix(1,0,0,1,-1.2121212121212466,-0.20744713598318754)"><svg viewBox="0 0 396 57" data-background-color="#c9efc7" preserveAspectRatio="xMidYMid meet" height="287" width="2000" xmlns="http://www.w3.org/2000/svg" xmlns:xlink="http://www.w3.org/1999/xlink"><g id="tight-bounds" transform="matrix(1,0,0,1,0.2400000000000091,0.04120030226843596)"><svg viewBox="0 0 395.52 56.91759706393663" height="56.91759706393663" width="395.52"><g><svg viewBox="0 0 395.52 56.91759706393663" height="56.91759706393663" width="395.52"><g><svg viewBox="0 0 395.52 56.91759706393663" height="56.91759706393663" width="395.52"><g id="textblocktransform"><svg viewBox="0 0 395.52 56.91759706393663" height="56.91759706393663" width="395.52" id="textblock"><g><svg viewBox="0 0 395.52 56.91759706393663" height="56.91759706393663" width="395.52"><g transform="matrix(1,0,0,1,0,0)"><svg width="395.52" viewBox="1.7999999523162842 -36.150001525878906 258.84002685546875 37.25" height="56.91759706393663" data-palette-color="#454545"><g class="wordmark-text-0" data-fill-palette-color="primary" id="text-0"><path d="M37.8-1.15L37.8-1.15Q32.85 1 26.88 1 20.9 1 16-0.58 11.1-2.15 8.05-4.8 5-7.45 3.4-10.73 1.8-14 1.8-17.55 1.8-21.1 3.43-24.38 5.05-27.65 8.08-30.3 11.1-32.95 16-34.55 20.9-36.15 26.75-36.15 32.6-36.15 37.1-34.7 41.6-33.25 44.35-30.75L44.35-30.75Q49.95-25.65 49.95-18.65L49.95-18.65Q49.95-12.8 46.15-7.7L46.15-7.7 50.9-7.25Q52.05-7.1 52.05-5.75 52.05-4.4 51.48-2.55 50.9-0.7 50.38 0.2 49.85 1.1 48.45 1.1L48.45 1.1Q46.75 1.1 37.8-1.15ZM36.85-18.43Q36.85-20.8 35.15-22.58 33.45-24.35 29.98-24.35 26.5-24.35 24.45-22.5 22.4-20.65 22.4-18 22.4-15.35 24.55-13.75 26.7-12.15 29.73-12.15 32.75-12.15 34.8-14.1 36.85-16.05 36.85-18.43ZM76.3-29.75L76.3-29.75 76.2-25.2 76.2-15.55Q76.2-13.45 77.5-12.3 78.8-11.15 80.55-11.15 82.3-11.15 83.57-12.3 84.85-13.45 84.85-15.55L84.85-15.55 84.85-30.45Q84.85-32.8 85.47-33.9 86.1-35 88.2-35L88.2-35 92.8-35Q94.4-35 95-34.05L95-34.05Q96.15-32.35 96.15-20.9L96.15-20.9Q96.15-17.15 96.05-15.15L96.05-15.15Q95.9-11.1 94.17-7.93 92.45-4.75 89.75-2.85L89.75-2.85Q84.3 1 77.4 1L77.4 1Q68.3 1 62.35-3.25L62.35-3.25Q59.35-5.4 57.62-8.97 55.9-12.55 55.85-17.3L55.85-17.3Q55.8-19.65 55.8-24.23 55.8-28.8 55.92-30.83 56.05-32.85 56.72-33.93 57.4-35 59.45-35L59.45-35 72.8-35Q74.8-35 75.45-33.95L75.45-33.95Q76.3-32.6 76.3-29.75ZM105.05-35L105.05-35 118.45-35Q120.55-35 121.22-33.95 121.9-32.9 122.12-29.63 122.35-26.35 122.35-16.93 122.35-7.5 121.95-3.1L121.95-3.1Q121.8-1.95 120.92-1.05 120.05-0.15 118.6-0.05L118.6-0.05Q115.75 0.15 112 0.15 108.25 0.15 104.9-0.05L104.9-0.05Q103.45-0.15 102.57-1.05 101.7-1.95 101.55-3.1L101.55-3.1Q101.15-7.5 101.15-16.93 101.15-26.35 101.37-29.63 101.6-32.9 102.27-33.95 102.95-35 105.05-35ZM129.09-28.85L129.09-28.85 129.09-32.55Q129.09-33.85 129.72-34.38 130.34-34.9 133.07-34.98 135.79-35.05 141.29-35.1 146.79-35.15 153.44-35.15L153.44-35.15Q153.44-35.15 162.44-35.15L162.44-35.15Q163.64-35.15 164.67-34.5 165.69-33.85 165.69-32.85L165.69-32.85 165.69-28.75Q165.69-27.95 165.44-27.5L165.44-27.5Q165.44-27.5 165.14-26.9L165.14-26.9Q165.09-26.75 164.79-26.3L164.79-26.3 164.39-25.7Q159.74-18.35 153.64-9.85L153.64-9.85Q153.04-9 153.22-8.43 153.39-7.85 154.14-7.85L154.14-7.85 163.69-7.85Q164.74-7.85 165.32-7.13 165.89-6.4 165.89-5.55L165.89-5.55 165.89-2.65Q165.89-0.05 163.69 0.05L163.69 0.05Q157.14 0.2 147.49 0.2 137.84 0.2 132.09 0L132.09 0Q129.54-0.1 128.37-0.68 127.19-1.25 127.19-2.9L127.19-2.9 127.19-6.75Q127.19-8.4 128.19-10.05L128.19-10.05Q133.39-18.3 139.04-25.8L139.04-25.8Q139.49-26.45 139.19-26.9 138.89-27.35 138.04-27.35L138.04-27.35 131.44-27.35Q130.44-27.35 129.77-27.78 129.09-28.2 129.09-28.85ZM205.39-35L211.89-35Q212.89-35 212.89-34L212.89-34Q212.89-33.35 212.34-32.6L212.34-32.6 201.14-14.85Q201.14-10.8 200.89-3.05L200.89-3.05Q200.84-1.95 199.94-1.03 199.04-0.1 197.54 0L197.54 0Q194.69 0.2 190.69 0.2 186.69 0.2 183.34 0L183.34 0Q181.84-0.1 180.94-1.03 180.04-1.95 179.99-3.05L179.99-3.05Q179.89-8.1 179.89-13.55L179.89-13.55 169.79-30.5Q169.04-31.65 169.04-32.4L169.04-32.4Q169.04-34.9 171.49-34.9L171.49-34.9 188.59-35Q190.04-35 190.77-34.55 191.49-34.1 192.49-32.7L192.49-32.7 195.54-26.15Q196.34-25.05 196.87-25.05 197.39-25.05 198.14-25.95L198.14-25.95 203.24-33.95Q204.09-35 205.39-35L205.39-35ZM253.14-35L259.64-35Q260.64-35 260.64-34L260.64-34Q260.64-33.35 260.09-32.6L260.09-32.6 248.89-14.85Q248.89-10.8 248.64-3.05L248.64-3.05Q248.59-1.95 247.69-1.03 246.79-0.1 245.29 0L245.29 0Q242.44 0.2 238.44 0.2 234.44 0.2 231.09 0L231.09 0Q229.59-0.1 228.69-1.03 227.79-1.95 227.74-3.05L227.74-3.05Q227.64-8.1 227.64-13.55L227.64-13.55 217.54-30.5Q216.79-31.65 216.79-32.4L216.79-32.4Q216.79-34.9 219.24-34.9L219.24-34.9 236.34-35Q237.79-35 238.51-34.55 239.24-34.1 240.24-32.7L240.24-32.7 243.29-26.15Q244.09-25.05 244.61-25.05 245.14-25.05 245.89-25.95L245.89-25.95 250.99-33.95Q251.84-35 253.14-35L253.14-35Z" fill="#454545" data-fill-palette-color="primary"></path></g></svg></g></svg></g></svg></g></svg></g></svg></g><defs></defs></svg><rect width="395.52" height="56.91759706393663" fill="none" stroke="none" visibility="hidden"></rect></g></svg></g></svg>